<svg xmlns="http://www.w3.org/2000/svg" viewBox="0 0 600 300" style="background:#1a1a2e;font-family:monospace">
<line x1="60" y1="250.0" x2="570" y2="250.0" stroke="#333" stroke-width="0.5"/>
<text x="55" y="254.0" fill="#aaa" font-size="10" text-anchor="end">0s</text>
<line x1="60" y1="225.55555555555554" x2="570" y2="225.55555555555554" stroke="#333" stroke-width="0.5"/>
<text x="55" y="229.55555555555554" fill="#aaa" font-size="10" text-anchor="end">2s</text>
<line x1="60" y1="201.11111111111111" x2="570" y2="201.11111111111111" stroke="#333" stroke-width="0.5"/>
<text x="55" y="205.11111111111111" fill="#aaa" font-size="10" text-anchor="end">4s</text>
<line x1="60" y1="176.66666666666669" x2="570" y2="176.66666666666669" stroke="#333" stroke-width="0.5"/>
<text x="55" y="180.66666666666669" fill="#aaa" font-size="10" text-anchor="end">6s</text>
<line x1="60" y1="152.22222222222223" x2="570" y2="152.22222222222223" stroke="#333" stroke-width="0.5"/>
<text x="55" y="156.22222222222223" fill="#aaa" font-size="10" text-anchor="end">8s</text>
<line x1="60" y1="127.77777777777777" x2="570" y2="127.77777777777777" stroke="#333" stroke-width="0.5"/>
<text x="55" y="131.77777777777777" fill="#aaa" font-size="10" text-anchor="end">10s</text>
<line x1="60" y1="103.33333333333334" x2="570" y2="103.33333333333334" stroke="#333" stroke-width="0.5"/>
<text x="55" y="107.33333333333334" fill="#aaa" font-size="10" text-anchor="end">12s</text>
<line x1="60" y1="78.88888888888889" x2="570" y2="78.88888888888889" stroke="#333" stroke-width="0.5"/>
<text x="55" y="82.88888888888889" fill="#aaa" font-size="10" text-anchor="end">14s</text>
<line x1="60" y1="54.44444444444446" x2="570" y2="54.44444444444446" stroke="#333" stroke-width="0.5"/>
<text x="55" y="58.44444444444446" fill="#aaa" font-size="10" text-anchor="end">16s</text>
<line x1="60" y1="30.0" x2="570" y2="30.0" stroke="#333" stroke-width="0.5"/>
<text x="55" y="34.0" fill="#aaa" font-size="10" text-anchor="end">18s</text>
<line x1="60.0" y1="30" x2="60.0" y2="250" stroke="#333" stroke-width="0.5"/>
<text x="60.0" y="265" fill="#aaa" font-size="10" text-anchor="middle">0</text>
<line x1="162.0" y1="30" x2="162.0" y2="250" stroke="#333" stroke-width="0.5"/>
<text x="162.0" y="265" fill="#aaa" font-size="10" text-anchor="middle">50</text>
<line x1="264.0" y1="30" x2="264.0" y2="250" stroke="#333" stroke-width="0.5"/>
<text x="264.0" y="265" fill="#aaa" font-size="10" text-anchor="middle">100</text>
<line x1="366.0" y1="30" x2="366.0" y2="250" stroke="#333" stroke-width="0.5"/>
<text x="366.0" y="265" fill="#aaa" font-size="10" text-anchor="middle">150</text>
<line x1="468.0" y1="30" x2="468.0" y2="250" stroke="#333" stroke-width="0.5"/>
<text x="468.0" y="265" fill="#aaa" font-size="10" text-anchor="middle">200</text>
<line x1="570.0" y1="30" x2="570.0" y2="250" stroke="#333" stroke-width="0.5"/>
<text x="570.0" y="265" fill="#aaa" font-size="10" text-anchor="middle">250</text>
<line x1="60" y1="250" x2="570" y2="250" stroke="#666" stroke-width="1"/>
<line x1="60" y1="30" x2="60" y2="250" stroke="#666" stroke-width="1"/>
<polygon points="60.0,42.2 70.2,52.6 80.4,63.0 90.6,73.4 100.8,83.8 111.0,94.2 121.2,104.6 131.4,114.9 141.6,125.3 151.8,135.7 162.0,146.1 172.2,156.5 182.4,166.9 192.6,177.3 202.8,187.7 213.0,198.1 223.2,208.4 233.4,218.8 243.6,229.2 253.8,239.6 264.0,250.0 274.2,250.0 284.4,250.0 294.6,250.0 304.8,250.0 315.0,250.0 325.2,250.0 335.4,250.0 345.6,250.0 355.8,250.0 366.0,250.0 376.2,250.0 386.4,250.0 396.6,250.0 406.8,250.0 417.0,250.0 427.2,250.0 437.4,250.0 447.6,250.0 457.8,250.0 468.0,250.0 478.2,250.0 488.4,250.0 498.6,250.0 508.8,250.0 519.0,250.0 529.2,250.0 539.4,250.0 549.6,250.0 559.8,250.0 570.0,250.0 570.0,250.0 559.8,250.0 549.6,250.0 539.4,250.0 529.2,250.0 519.0,250.0 508.8,250.0 498.6,250.0 488.4,250.0 478.2,250.0 468.0,250.0 457.8,250.0 447.6,250.0 437.4,250.0 427.2,250.0 417.0,250.0 406.8,250.0 396.6,250.0 386.4,250.0 376.2,250.0 366.0,250.0 355.8,250.0 345.6,250.0 335.4,250.0 325.2,250.0 315.0,250.0 304.8,250.0 294.6,250.0 284.4,250.0 274.2,250.0 264.0,250.0 253.8,242.1 243.6,234.1 233.4,226.2 223.2,218.2 213.0,210.3 202.8,202.3 192.6,194.4 182.4,186.4 172.2,178.5 162.0,170.6 151.8,162.6 141.6,154.7 131.4,146.7 121.2,138.8 111.0,130.8 100.8,122.9 90.6,114.9 80.4,107.0 70.2,99.1 60.0,91.1" fill="#2196F3" fill-opacity="0.2"/>
<polyline points="60.0,42.2 70.2,52.6 80.4,63.0 90.6,73.4 100.8,83.8 111.0,94.2 121.2,104.6 131.4,114.9 141.6,125.3 151.8,135.7 162.0,146.1 172.2,156.5 182.4,166.9 192.6,177.3 202.8,187.7 213.0,198.1 223.2,208.4 233.4,218.8 243.6,229.2 253.8,239.6 264.0,250.0 274.2,250.0 284.4,250.0 294.6,250.0 304.8,250.0 315.0,250.0 325.2,250.0 335.4,250.0 345.6,250.0 355.8,250.0 366.0,250.0 376.2,250.0 386.4,250.0 396.6,250.0 406.8,250.0 417.0,250.0 427.2,250.0 437.4,250.0 447.6,250.0 457.8,250.0 468.0,250.0 478.2,250.0 488.4,250.0 498.6,250.0 508.8,250.0 519.0,250.0 529.2,250.0 539.4,250.0 549.6,250.0 559.8,250.0 570.0,250.0" fill="none" stroke="#2196F3" stroke-width="2"/>
<polyline points="60.0,91.1 70.2,99.1 80.4,107.0 90.6,114.9 100.8,122.9 111.0,130.8 121.2,138.8 131.4,146.7 141.6,154.7 151.8,162.6 162.0,170.6 172.2,178.5 182.4,186.4 192.6,194.4 202.8,202.3 213.0,210.3 223.2,218.2 233.4,226.2 243.6,234.1 253.8,242.1 264.0,250.0 274.2,250.0 284.4,250.0 294.6,250.0 304.8,250.0 315.0,250.0 325.2,250.0 335.4,250.0 345.6,250.0 355.8,250.0 366.0,250.0 376.2,250.0 386.4,250.0 396.6,250.0 406.8,250.0 417.0,250.0 427.2,250.0 437.4,250.0 447.6,250.0 457.8,250.0 468.0,250.0 478.2,250.0 488.4,250.0 498.6,250.0 508.8,250.0 519.0,250.0 529.2,250.0 539.4,250.0 549.6,250.0 559.8,250.0 570.0,250.0" fill="none" stroke="#4CAF50" stroke-width="2"/>
<line x1="264.0" y1="30" x2="264.0" y2="250" stroke="#F44336" stroke-width="1" stroke-dasharray="4"/>
<text x="267.0" y="45" fill="#F44336" font-size="10">100% cap</text>
<text x="490" y="240" fill="#2196F3" font-size="11">Max wait (17s base)</text>
<text x="490" y="225" fill="#4CAF50" font-size="11">Min wait (13s base)</text>
<text x="315.0" y="295" fill="#aaa" font-size="12" text-anchor="middle">Attraction Value</text>
<text x="15" y="140.0" fill="#aaa" font-size="12" text-anchor="middle" transform="rotate(-90,15,140.0)">Wait Time (s)</text>
</svg>