<svg xmlns="http://www.w3.org/2000/svg" viewBox="0 0 600 350" style="background:#1a1a2e;font-family:monospace">
<line x1="60" y1="300.0" x2="430" y2="300.0" stroke="#333" stroke-width="0.5"/>
<text x="55" y="304.0" fill="#aaa" font-size="10" text-anchor="end">0.00</text>
<line x1="60" y1="273.0" x2="430" y2="273.0" stroke="#333" stroke-width="0.5"/>
<text x="55" y="277.0" fill="#aaa" font-size="10" text-anchor="end">0.12</text>
<line x1="60" y1="246.0" x2="430" y2="246.0" stroke="#333" stroke-width="0.5"/>
<text x="55" y="250.0" fill="#aaa" font-size="10" text-anchor="end">0.24</text>
<line x1="60" y1="219.0" x2="430" y2="219.0" stroke="#333" stroke-width="0.5"/>
<text x="55" y="223.0" fill="#aaa" font-size="10" text-anchor="end">0.36</text>
<line x1="60" y1="192.0" x2="430" y2="192.0" stroke="#333" stroke-width="0.5"/>
<text x="55" y="196.0" fill="#aaa" font-size="10" text-anchor="end">0.48</text>
<line x1="60" y1="165.0" x2="430" y2="165.0" stroke="#333" stroke-width="0.5"/>
<text x="55" y="169.0" fill="#aaa" font-size="10" text-anchor="end">0.60</text>
<line x1="60" y1="138.0" x2="430" y2="138.0" stroke="#333" stroke-width="0.5"/>
<text x="55" y="142.0" fill="#aaa" font-size="10" text-anchor="end">0.72</text>
<line x1="60" y1="111.0" x2="430" y2="111.0" stroke="#333" stroke-width="0.5"/>
<text x="55" y="115.0" fill="#aaa" font-size="10" text-anchor="end">0.84</text>
<line x1="60" y1="84.0" x2="430" y2="84.0" stroke="#333" stroke-width="0.5"/>
<text x="55" y="88.0" fill="#aaa" font-size="10" text-anchor="end">0.96</text>
<line x1="60" y1="57.0" x2="430" y2="57.0" stroke="#333" stroke-width="0.5"/>
<text x="55" y="61.0" fill="#aaa" font-size="10" text-anchor="end">1.08</text>
<line x1="60" y1="30.0" x2="430" y2="30.0" stroke="#333" stroke-width="0.5"/>
<text x="55" y="34.0" fill="#aaa" font-size="10" text-anchor="end">1.20</text>
<line x1="60.0" y1="30" x2="60.0" y2="300" stroke="#333" stroke-width="0.5"/>
<text x="60.0" y="315" fill="#aaa" font-size="10" text-anchor="middle">0.0</text>
<line x1="97.0" y1="30" x2="97.0" y2="300" stroke="#333" stroke-width="0.5"/>
<text x="97.0" y="315" fill="#aaa" font-size="10" text-anchor="middle">0.1</text>
<line x1="134.0" y1="30" x2="134.0" y2="300" stroke="#333" stroke-width="0.5"/>
<text x="134.0" y="315" fill="#aaa" font-size="10" text-anchor="middle">0.2</text>
<line x1="171.0" y1="30" x2="171.0" y2="300" stroke="#333" stroke-width="0.5"/>
<text x="171.0" y="315" fill="#aaa" font-size="10" text-anchor="middle">0.3</text>
<line x1="208.0" y1="30" x2="208.0" y2="300" stroke="#333" stroke-width="0.5"/>
<text x="208.0" y="315" fill="#aaa" font-size="10" text-anchor="middle">0.4</text>
<line x1="245.0" y1="30" x2="245.0" y2="300" stroke="#333" stroke-width="0.5"/>
<text x="245.0" y="315" fill="#aaa" font-size="10" text-anchor="middle">0.5</text>
<line x1="282.0" y1="30" x2="282.0" y2="300" stroke="#333" stroke-width="0.5"/>
<text x="282.0" y="315" fill="#aaa" font-size="10" text-anchor="middle">0.6</text>
<line x1="319.0" y1="30" x2="319.0" y2="300" stroke="#333" stroke-width="0.5"/>
<text x="319.0" y="315" fill="#aaa" font-size="10" text-anchor="middle">0.7</text>
<line x1="356.0" y1="30" x2="356.0" y2="300" stroke="#333" stroke-width="0.5"/>
<text x="356.0" y="315" fill="#aaa" font-size="10" text-anchor="middle">0.8</text>
<line x1="393.0" y1="30" x2="393.0" y2="300" stroke="#333" stroke-width="0.5"/>
<text x="393.0" y="315" fill="#aaa" font-size="10" text-anchor="middle">0.9</text>
<line x1="430.0" y1="30" x2="430.0" y2="300" stroke="#333" stroke-width="0.5"/>
<text x="430.0" y="315" fill="#aaa" font-size="10" text-anchor="middle">1.0</text>
<line x1="60" y1="300" x2="430" y2="300" stroke="#666" stroke-width="1"/>
<line x1="60" y1="30" x2="60" y2="300" stroke="#666" stroke-width="1"/>
<polyline points="60.0,30.0 63.7,31.1 67.4,32.2 71.1,33.4 74.8,34.5 78.5,35.6 82.2,36.8 85.9,37.9 89.6,39.0 93.3,40.1 97.0,41.2 100.7,42.4 104.4,43.5 108.1,44.6 111.8,45.8 115.5,46.9 119.2,48.0 122.9,49.1 126.6,50.3 130.3,51.4 134.0,52.5 137.7,53.6 141.4,54.8 145.1,55.9 148.8,57.0 152.5,58.1 156.2,59.3 159.9,60.4 163.6,61.5 167.3,62.6 171.0,63.7 174.7,64.9 178.4,66.0 182.1,67.1 185.8,68.2 189.5,69.4 193.2,70.5 196.9,71.6 200.6,72.8 204.3,73.9 208.0,75.0 211.7,76.1 215.4,77.2 219.1,78.4 222.8,79.5 226.5,80.6 230.2,81.8 233.9,82.9 237.6,84.0 241.3,85.1 245.0,86.2 248.7,87.4 252.4,88.5 256.1,89.6 259.8,90.8 263.5,91.9 267.2,93.0 270.9,94.1 274.6,95.2 278.3,96.4 282.0,97.5 285.7,98.6 289.4,99.8 293.1,100.9 296.8,102.0 300.5,103.1 304.2,104.2 307.9,105.4 311.6,106.5 315.3,107.6 319.0,108.8 322.7,109.9 326.4,111.0 330.1,112.1 333.8,113.2 337.5,114.4 341.2,115.5 344.9,116.6 348.6,117.8 352.3,118.9 356.0,120.0 359.7,121.1 363.4,122.2 367.1,123.4 370.8,124.5 374.5,125.6 378.2,126.8 381.9,127.9 385.6,129.0 389.3,130.1 393.0,131.2 396.7,132.4 400.4,133.5 404.1,134.6 407.8,135.7 411.5,136.9 415.2,138.0 418.9,139.1 422.6,140.2 426.3,141.4 430.0,142.5" fill="none" stroke="#4CAF50" stroke-width="2"/>
<polyline points="60.0,255.0 63.7,255.3 67.4,255.6 71.1,255.9 74.8,256.3 78.5,256.6 82.2,256.9 85.9,257.2 89.6,257.5 93.3,257.8 97.0,258.1 100.7,258.5 104.4,258.8 108.1,259.1 111.8,259.4 115.5,259.7 119.2,260.0 122.9,260.4 126.6,260.7 130.3,261.0 134.0,261.3 137.7,261.6 141.4,261.9 145.1,262.2 148.8,262.6 152.5,262.9 156.2,263.2 159.9,263.5 163.6,263.8 167.3,264.1 171.0,264.4 174.7,264.8 178.4,265.1 182.1,265.4 185.8,265.7 189.5,266.0 193.2,266.3 196.9,266.7 200.6,267.0 204.3,267.3 208.0,267.6 211.7,267.9 215.4,268.2 219.1,268.5 222.8,268.9 226.5,269.2 230.2,269.5 233.9,269.8 237.6,270.1 241.3,270.4 245.0,270.8 248.7,271.1 252.4,271.4 256.1,271.7 259.8,272.0 263.5,272.3 267.2,272.6 270.9,273.0 274.6,273.3 278.3,273.6 282.0,273.9 285.7,274.2 289.4,274.5 293.1,274.8 296.8,275.2 300.5,275.5 304.2,275.8 307.9,276.1 311.6,276.4 315.3,276.7 319.0,277.1 322.7,277.4 326.4,277.7 330.1,278.0 333.8,278.3 337.5,278.6 341.2,278.9 344.9,279.3 348.6,279.6 352.3,279.9 356.0,280.2 359.7,280.5 363.4,280.8 367.1,281.1 370.8,281.5 374.5,281.8 378.2,282.1 381.9,282.4 385.6,282.7 389.3,283.0 393.0,283.4 396.7,283.7 400.4,284.0 404.1,284.3 407.8,284.6 411.5,284.9 415.2,285.2 418.9,285.6 422.6,285.9 426.3,286.2 430.0,286.5" fill="none" stroke="#2196F3" stroke-width="2"/>
<polyline points="60.0,277.5 63.7,277.4 67.4,277.3 71.1,277.2 74.8,277.1 78.5,276.9 82.2,276.8 85.9,276.7 89.6,276.6 93.3,276.5 97.0,276.4 100.7,276.3 104.4,276.1 108.1,276.0 111.8,275.9 115.5,275.8 119.2,275.7 122.9,275.6 126.6,275.5 130.3,275.4 134.0,275.2 137.7,275.1 141.4,275.0 145.1,274.9 148.8,274.8 152.5,274.7 156.2,274.6 159.9,274.5 163.6,274.4 167.3,274.2 171.0,274.1 174.7,274.0 178.4,273.9 182.1,273.8 185.8,273.7 189.5,273.6 193.2,273.4 196.9,273.3 200.6,273.2 204.3,273.1 208.0,273.0 211.7,272.9 215.4,272.8 219.1,272.7 222.8,272.6 226.5,272.4 230.2,272.3 233.9,272.2 237.6,272.1 241.3,272.0 245.0,271.9 248.7,271.8 252.4,271.6 256.1,271.5 259.8,271.4 263.5,271.3 267.2,271.2 270.9,271.1 274.6,271.0 278.3,270.9 282.0,270.8 285.7,270.6 289.4,270.5 293.1,270.4 296.8,270.3 300.5,270.2 304.2,270.1 307.9,270.0 311.6,269.9 315.3,269.7 319.0,269.6 322.7,269.5 326.4,269.4 330.1,269.3 333.8,269.2 337.5,269.1 341.2,268.9 344.9,268.8 348.6,268.7 352.3,268.6 356.0,268.5 359.7,268.4 363.4,268.3 367.1,268.2 370.8,268.1 374.5,267.9 378.2,267.8 381.9,267.7 385.6,267.6 389.3,267.5 393.0,267.4 396.7,267.3 400.4,267.1 404.1,267.0 407.8,266.9 411.5,266.8 415.2,266.7 418.9,266.6 422.6,266.5 426.3,266.4 430.0,266.2" fill="none" stroke="#F44336" stroke-width="2"/>
<polyline points="60.0,75.0 63.7,76.8 67.4,78.6 71.1,80.5 74.8,82.3 78.5,84.1 82.2,85.9 85.9,87.8 89.6,89.6 93.3,91.4 97.0,93.2 100.7,95.0 104.4,96.9 108.1,98.7 111.8,100.5 115.5,102.3 119.2,104.2 122.9,106.0 126.6,107.8 130.3,109.6 134.0,111.4 137.7,113.3 141.4,115.1 145.1,116.9 148.8,118.7 152.5,120.6 156.2,122.4 159.9,124.2 163.6,126.0 167.3,127.9 171.0,129.7 174.7,131.5 178.4,133.3 182.1,135.1 185.8,137.0 189.5,138.8 193.2,140.6 196.9,142.4 200.6,144.3 204.3,146.1 208.0,147.9 211.7,149.7 215.4,151.5 219.1,153.4 222.8,155.2 226.5,157.0 230.2,158.8 233.9,160.7 237.6,162.5 241.3,164.3 245.0,166.1 248.7,167.9 252.4,169.8 256.1,171.6 259.8,173.4 263.5,175.2 267.2,177.1 270.9,178.9 274.6,180.7 278.3,182.5 282.0,184.3 285.7,186.2 289.4,188.0 293.1,189.8 296.8,191.6 300.5,193.5 304.2,195.3 307.9,197.1 311.6,198.9 315.3,200.8 319.0,202.6 322.7,204.4 326.4,206.2 330.1,208.0 333.8,209.9 337.5,211.7 341.2,213.5 344.9,215.3 348.6,217.2 352.3,219.0 356.0,220.8 359.7,222.6 363.4,224.4 367.1,226.3 370.8,228.1 374.5,229.9 378.2,231.7 381.9,233.6 385.6,235.4 389.3,237.2 393.0,239.0 396.7,240.8 400.4,242.7 404.1,244.5 407.8,246.3 411.5,248.1 415.2,250.0 418.9,251.8 422.6,253.6 426.3,255.4 430.0,257.2" fill="none" stroke="#FF9800" stroke-width="2"/>
<polyline points="60.0,187.5 63.7,187.7 67.4,187.9 71.1,188.2 74.8,188.4 78.5,188.6 82.2,188.8 85.9,189.1 89.6,189.3 93.3,189.5 97.0,189.8 100.7,190.0 104.4,190.2 108.1,190.4 111.8,190.6 115.5,190.9 119.2,191.1 122.9,191.3 126.6,191.6 130.3,191.8 134.0,192.0 137.7,192.2 141.4,192.4 145.1,192.7 148.8,192.9 152.5,193.1 156.2,193.3 159.9,193.6 163.6,193.8 167.3,194.0 171.0,194.2 174.7,194.5 178.4,194.7 182.1,194.9 185.8,195.1 189.5,195.4 193.2,195.6 196.9,195.8 200.6,196.1 204.3,196.3 208.0,196.5 211.7,196.7 215.4,196.9 219.1,197.2 222.8,197.4 226.5,197.6 230.2,197.8 233.9,198.1 237.6,198.3 241.3,198.5 245.0,198.8 248.7,199.0 252.4,199.2 256.1,199.4 259.8,199.6 263.5,199.9 267.2,200.1 270.9,200.3 274.6,200.6 278.3,200.8 282.0,201.0 285.7,201.2 289.4,201.4 293.1,201.7 296.8,201.9 300.5,202.1 304.2,202.3 307.9,202.6 311.6,202.8 315.3,203.0 319.0,203.2 322.7,203.5 326.4,203.7 330.1,203.9 333.8,204.1 337.5,204.4 341.2,204.6 344.9,204.8 348.6,205.0 352.3,205.3 356.0,205.5 359.7,205.7 363.4,205.9 367.1,206.2 370.8,206.4 374.5,206.6 378.2,206.8 381.9,207.1 385.6,207.3 389.3,207.5 393.0,207.8 396.7,208.0 400.4,208.2 404.1,208.4 407.8,208.6 411.5,208.9 415.2,209.1 418.9,209.3 422.6,209.6 426.3,209.8 430.0,210.0" fill="none" stroke="#9C27B0" stroke-width="2"/>
<rect x="440" y="34" width="12" height="12" fill="#4CAF50"/>
<text x="456" y="44" fill="#ddd" font-size="10">Target Size</text>
<rect x="440" y="54" width="12" height="12" fill="#2196F3"/>
<text x="456" y="64" fill="#ddd" font-size="10">Catch Speed</text>
<rect x="440" y="74" width="12" height="12" fill="#F44336"/>
<text x="456" y="84" fill="#ddd" font-size="10">Lose Speed</text>
<rect x="440" y="94" width="12" height="12" fill="#FF9800"/>
<text x="456" y="104" fill="#ddd" font-size="10">Fish Ease</text>
<rect x="440" y="114" width="12" height="12" fill="#9C27B0"/>
<text x="456" y="124" fill="#ddd" font-size="10">Dir Interval</text>
<text x="245.0" y="345" fill="#aaa" font-size="12" text-anchor="middle">Fish Difficulty (0=Easy, 1=Hard)</text>
<text x="15" y="165.0" fill="#aaa" font-size="12" text-anchor="middle" transform="rotate(-90,15,165.0)">Parameter Value</text>
</svg>