<svg xmlns="http://www.w3.org/2000/svg" viewBox="0 0 700 350" style="background:#1a1a2e;font-family:monospace">
<polyline points="70.0,300.0 73.1,280.7 76.1,261.4 79.2,242.1 82.3,222.9 85.3,203.6 88.4,184.3 91.5,165.0 94.5,145.7 97.6,126.4 100.7,107.1 103.7,87.9 106.8,68.6 109.9,49.3 112.9,30.0" fill="none" stroke="#4CAF50" stroke-width="2"/>
<circle cx="112.93333333333334" cy="30" r="3" fill="#4CAF50"/>
<polyline points="70.0,300.0 73.1,295.3 76.1,290.4 79.2,285.0 82.3,279.2 85.3,273.0 88.4,266.2 91.5,258.9 94.5,250.9 97.6,242.1 100.7,232.5 103.7,221.8 106.8,210.0 109.9,196.8 112.9,181.9 116.0,165.0 119.1,145.7 122.1,123.5 125.2,97.5 128.3,66.8 131.3,30.0" fill="none" stroke="#2196F3" stroke-width="2"/>
<circle cx="131.33333333333334" cy="30" r="3" fill="#2196F3"/>
<polyline points="70.0,300.0 73.1,298.2 76.1,296.4 79.2,294.6 82.3,292.8 85.3,291.0 88.4,289.2 91.5,287.4 94.5,285.6 97.6,283.8 100.7,282.0 103.7,280.2 106.8,278.4 109.9,276.6 112.9,274.8 116.0,273.0 119.1,271.2 122.1,269.4 125.2,267.6 128.3,265.8 131.3,264.0 134.4,262.2 137.5,260.4 140.5,258.6 143.6,256.8 146.7,255.0 149.7,253.2 152.8,251.4 155.9,249.6 158.9,247.8 162.0,246.0 165.1,244.2 168.1,242.4 171.2,240.6 174.3,238.8 177.3,237.0 180.4,235.2 183.5,233.4 186.5,231.6 189.6,229.8 192.7,228.0 195.7,226.2 198.8,224.4 201.9,222.6 204.9,220.8 208.0,219.0 211.1,217.2 214.1,215.4 217.2,213.6 220.3,211.8 223.3,210.0 226.4,208.2 229.5,206.4 232.5,204.6 235.6,202.8 238.7,201.0 241.7,199.2 244.8,197.4 247.9,195.6 250.9,193.8 254.0,192.0 257.1,190.2 260.1,188.4 263.2,186.6 266.3,184.8 269.3,183.0 272.4,181.2 275.5,179.4 278.5,177.6 281.6,175.8 284.7,174.0 287.7,172.2 290.8,170.4 293.9,168.6 296.9,166.8 300.0,165.0 303.1,163.2 306.1,161.4 309.2,159.6 312.3,157.8 315.3,156.0 318.4,154.2 321.5,152.4 324.5,150.6 327.6,148.8 330.7,147.0 333.7,145.2 336.8,143.4 339.9,141.6 342.9,139.8 346.0,138.0 349.1,136.2 352.1,134.4 355.2,132.6 358.3,130.8 361.3,129.0 364.4,127.2 367.5,125.4 370.5,123.6 373.6,121.8 376.7,120.0 379.7,118.2 382.8,116.4 385.9,114.6 388.9,112.8 392.0,111.0 395.1,109.2 398.1,107.4 401.2,105.6 404.3,103.8 407.3,102.0 410.4,100.2 413.5,98.4 416.5,96.6 419.6,94.8 422.7,93.0 425.7,91.2 428.8,89.4 431.9,87.6 434.9,85.8 438.0,84.0 441.1,82.2 444.1,80.4 447.2,78.6 450.3,76.8 453.3,75.0 456.4,73.2 459.5,71.4 462.5,69.6 465.6,67.8 468.7,66.0 471.7,64.2 474.8,62.4 477.9,60.6 480.9,58.8 484.0,57.0 487.1,55.2 490.1,53.4 493.2,51.6 496.3,49.8 499.3,48.0 502.4,46.2 505.5,44.4 508.5,42.6 511.6,40.8 514.7,39.0 517.7,37.2 520.8,35.4 523.9,33.6 526.9,31.8 530.0,30.0" fill="none" stroke="#FFD700" stroke-width="2"/>
<circle cx="530.0" cy="30" r="3" fill="#FFD700"/>
<polyline points="70.0,300.0 73.1,300.0 76.1,300.0 79.2,299.9 82.3,299.9 85.3,299.7 88.4,299.5 91.5,299.0 94.5,297.9 97.6,295.8 100.7,291.6 103.7,283.1 106.8,266.3 109.9,232.5 112.9,165.0 116.0,30.0" fill="none" stroke="#F44336" stroke-width="2"/>
<circle cx="116.0" cy="30" r="3" fill="#F44336"/>
<line x1="70" y1="300.0" x2="530" y2="300.0" stroke="#333" stroke-width="0.5"/>
<text x="65" y="304.0" fill="#aaa" font-size="10" text-anchor="end">0%</text>
<line x1="70" y1="273.0" x2="530" y2="273.0" stroke="#333" stroke-width="0.5"/>
<text x="65" y="277.0" fill="#aaa" font-size="10" text-anchor="end">10%</text>
<line x1="70" y1="246.0" x2="530" y2="246.0" stroke="#333" stroke-width="0.5"/>
<text x="65" y="250.0" fill="#aaa" font-size="10" text-anchor="end">20%</text>
<line x1="70" y1="219.0" x2="530" y2="219.0" stroke="#333" stroke-width="0.5"/>
<text x="65" y="223.0" fill="#aaa" font-size="10" text-anchor="end">30%</text>
<line x1="70" y1="192.0" x2="530" y2="192.0" stroke="#333" stroke-width="0.5"/>
<text x="65" y="196.0" fill="#aaa" font-size="10" text-anchor="end">40%</text>
<line x1="70" y1="165.0" x2="530" y2="165.0" stroke="#333" stroke-width="0.5"/>
<text x="65" y="169.0" fill="#aaa" font-size="10" text-anchor="end">50%</text>
<line x1="70" y1="138.0" x2="530" y2="138.0" stroke="#333" stroke-width="0.5"/>
<text x="65" y="142.0" fill="#aaa" font-size="10" text-anchor="end">60%</text>
<line x1="70" y1="111.0" x2="530" y2="111.0" stroke="#333" stroke-width="0.5"/>
<text x="65" y="115.0" fill="#aaa" font-size="10" text-anchor="end">70%</text>
<line x1="70" y1="84.0" x2="530" y2="84.0" stroke="#333" stroke-width="0.5"/>
<text x="65" y="88.0" fill="#aaa" font-size="10" text-anchor="end">80%</text>
<line x1="70" y1="57.0" x2="530" y2="57.0" stroke="#333" stroke-width="0.5"/>
<text x="65" y="61.0" fill="#aaa" font-size="10" text-anchor="end">90%</text>
<line x1="70" y1="30.0" x2="530" y2="30.0" stroke="#333" stroke-width="0.5"/>
<text x="65" y="34.0" fill="#aaa" font-size="10" text-anchor="end">100%</text>
<line x1="70.0" y1="30" x2="70.0" y2="300" stroke="#333" stroke-width="0.5"/>
<text x="70.0" y="315" fill="#aaa" font-size="10" text-anchor="middle">0</text>
<line x1="116.0" y1="30" x2="116.0" y2="300" stroke="#333" stroke-width="0.5"/>
<text x="116.0" y="315" fill="#aaa" font-size="10" text-anchor="middle">15</text>
<line x1="162.0" y1="30" x2="162.0" y2="300" stroke="#333" stroke-width="0.5"/>
<text x="162.0" y="315" fill="#aaa" font-size="10" text-anchor="middle">30</text>
<line x1="208.0" y1="30" x2="208.0" y2="300" stroke="#333" stroke-width="0.5"/>
<text x="208.0" y="315" fill="#aaa" font-size="10" text-anchor="middle">45</text>
<line x1="254.0" y1="30" x2="254.0" y2="300" stroke="#333" stroke-width="0.5"/>
<text x="254.0" y="315" fill="#aaa" font-size="10" text-anchor="middle">60</text>
<line x1="300.0" y1="30" x2="300.0" y2="300" stroke="#333" stroke-width="0.5"/>
<text x="300.0" y="315" fill="#aaa" font-size="10" text-anchor="middle">75</text>
<line x1="346.0" y1="30" x2="346.0" y2="300" stroke="#333" stroke-width="0.5"/>
<text x="346.0" y="315" fill="#aaa" font-size="10" text-anchor="middle">90</text>
<line x1="392.0" y1="30" x2="392.0" y2="300" stroke="#333" stroke-width="0.5"/>
<text x="392.0" y="315" fill="#aaa" font-size="10" text-anchor="middle">105</text>
<line x1="438.0" y1="30" x2="438.0" y2="300" stroke="#333" stroke-width="0.5"/>
<text x="438.0" y="315" fill="#aaa" font-size="10" text-anchor="middle">120</text>
<line x1="484.0" y1="30" x2="484.0" y2="300" stroke="#333" stroke-width="0.5"/>
<text x="484.0" y="315" fill="#aaa" font-size="10" text-anchor="middle">135</text>
<line x1="530.0" y1="30" x2="530.0" y2="300" stroke="#333" stroke-width="0.5"/>
<text x="530.0" y="315" fill="#aaa" font-size="10" text-anchor="middle">150</text>
<line x1="70" y1="300" x2="530" y2="300" stroke="#666" stroke-width="1"/>
<line x1="70" y1="30" x2="70" y2="300" stroke="#666" stroke-width="1"/>
<rect x="540" y="34" width="12" height="12" fill="#4CAF50"/>
<text x="556" y="44" fill="#ddd" font-size="10">Capacity (max 14lv)</text>
<text x="556" y="56" fill="#999" font-size="9">→ 75 fish</text>
<rect x="540" y="69" width="12" height="12" fill="#2196F3"/>
<text x="556" y="79" fill="#ddd" font-size="10">Speed (max 20lv)</text>
<text x="556" y="91" fill="#999" font-size="9">→ 18/hr</text>
<rect x="540" y="104" width="12" height="12" fill="#FFD700"/>
<text x="556" y="114" fill="#ddd" font-size="10">Luck (max 150lv)</text>
<text x="556" y="126" fill="#999" font-size="9">→ +150</text>
<rect x="540" y="139" width="12" height="12" fill="#F44336"/>
<text x="556" y="149" fill="#ddd" font-size="10">Weight (max 15lv)</text>
<text x="556" y="161" fill="#999" font-size="9">→ 327K kg</text>
<text x="300.0" y="345" fill="#aaa" font-size="12" text-anchor="middle">Upgrade Level</text>
<text x="15" y="165.0" fill="#aaa" font-size="12" text-anchor="middle" transform="rotate(-90,15,165.0)">% of Max Effect</text>
</svg>