<svg xmlns="http://www.w3.org/2000/svg" viewBox="0 0 700 400" style="background:#1a1a2e;font-family:monospace">
<line x1="60" y1="350.0" x2="520" y2="350.0" stroke="#333" stroke-width="0.5"/>
<text x="55" y="354.0" fill="#aaa" font-size="10" text-anchor="end">0%</text>
<line x1="60" y1="318.0" x2="520" y2="318.0" stroke="#333" stroke-width="0.5"/>
<text x="55" y="322.0" fill="#aaa" font-size="10" text-anchor="end">10%</text>
<line x1="60" y1="286.0" x2="520" y2="286.0" stroke="#333" stroke-width="0.5"/>
<text x="55" y="290.0" fill="#aaa" font-size="10" text-anchor="end">20%</text>
<line x1="60" y1="254.0" x2="520" y2="254.0" stroke="#333" stroke-width="0.5"/>
<text x="55" y="258.0" fill="#aaa" font-size="10" text-anchor="end">30%</text>
<line x1="60" y1="222.0" x2="520" y2="222.0" stroke="#333" stroke-width="0.5"/>
<text x="55" y="226.0" fill="#aaa" font-size="10" text-anchor="end">40%</text>
<line x1="60" y1="190.0" x2="520" y2="190.0" stroke="#333" stroke-width="0.5"/>
<text x="55" y="194.0" fill="#aaa" font-size="10" text-anchor="end">50%</text>
<line x1="60" y1="158.0" x2="520" y2="158.0" stroke="#333" stroke-width="0.5"/>
<text x="55" y="162.0" fill="#aaa" font-size="10" text-anchor="end">60%</text>
<line x1="60" y1="126.0" x2="520" y2="126.0" stroke="#333" stroke-width="0.5"/>
<text x="55" y="130.0" fill="#aaa" font-size="10" text-anchor="end">70%</text>
<line x1="60" y1="94.0" x2="520" y2="94.0" stroke="#333" stroke-width="0.5"/>
<text x="55" y="98.0" fill="#aaa" font-size="10" text-anchor="end">80%</text>
<line x1="60" y1="62.0" x2="520" y2="62.0" stroke="#333" stroke-width="0.5"/>
<text x="55" y="66.0" fill="#aaa" font-size="10" text-anchor="end">90%</text>
<line x1="60" y1="30.0" x2="520" y2="30.0" stroke="#333" stroke-width="0.5"/>
<text x="55" y="34.0" fill="#aaa" font-size="10" text-anchor="end">100%</text>
<line x1="60.0" y1="30" x2="60.0" y2="350" stroke="#333" stroke-width="0.5"/>
<text x="60.0" y="365" fill="#aaa" font-size="10" text-anchor="middle">0x</text>
<line x1="106.0" y1="30" x2="106.0" y2="350" stroke="#333" stroke-width="0.5"/>
<text x="106.0" y="365" fill="#aaa" font-size="10" text-anchor="middle">1x</text>
<line x1="152.0" y1="30" x2="152.0" y2="350" stroke="#333" stroke-width="0.5"/>
<text x="152.0" y="365" fill="#aaa" font-size="10" text-anchor="middle">2x</text>
<line x1="198.0" y1="30" x2="198.0" y2="350" stroke="#333" stroke-width="0.5"/>
<text x="198.0" y="365" fill="#aaa" font-size="10" text-anchor="middle">3x</text>
<line x1="244.0" y1="30" x2="244.0" y2="350" stroke="#333" stroke-width="0.5"/>
<text x="244.0" y="365" fill="#aaa" font-size="10" text-anchor="middle">4x</text>
<line x1="290.0" y1="30" x2="290.0" y2="350" stroke="#333" stroke-width="0.5"/>
<text x="290.0" y="365" fill="#aaa" font-size="10" text-anchor="middle">5x</text>
<line x1="336.0" y1="30" x2="336.0" y2="350" stroke="#333" stroke-width="0.5"/>
<text x="336.0" y="365" fill="#aaa" font-size="10" text-anchor="middle">6x</text>
<line x1="382.0" y1="30" x2="382.0" y2="350" stroke="#333" stroke-width="0.5"/>
<text x="382.0" y="365" fill="#aaa" font-size="10" text-anchor="middle">7x</text>
<line x1="428.0" y1="30" x2="428.0" y2="350" stroke="#333" stroke-width="0.5"/>
<text x="428.0" y="365" fill="#aaa" font-size="10" text-anchor="middle">8x</text>
<line x1="474.0" y1="30" x2="474.0" y2="350" stroke="#333" stroke-width="0.5"/>
<text x="474.0" y="365" fill="#aaa" font-size="10" text-anchor="middle">9x</text>
<line x1="520.0" y1="30" x2="520.0" y2="350" stroke="#333" stroke-width="0.5"/>
<text x="520.0" y="365" fill="#aaa" font-size="10" text-anchor="middle">10x</text>
<line x1="60" y1="350" x2="520" y2="350" stroke="#666" stroke-width="1"/>
<line x1="60" y1="30" x2="60" y2="350" stroke="#666" stroke-width="1"/>
<polyline points="60.0,321.8 83.0,335.0 106.0,350.0 129.0,350.0 152.0,350.0 175.0,350.0 198.0,350.0 221.0,350.0 244.0,350.0 267.0,350.0 290.0,350.0 313.0,350.0 336.0,350.0 359.0,350.0 382.0,350.0 405.0,350.0 428.0,350.0 451.0,350.0 474.0,350.0 497.0,350.0 520.0,350.0" fill="none" stroke="#888888" stroke-width="2"/>
<polyline points="60.0,293.7 83.0,279.7 106.0,263.9 129.0,256.8 152.0,255.5 175.0,254.3 198.0,253.4 221.0,252.6 244.0,251.9 267.0,251.2 290.0,250.7 313.0,250.2 336.0,249.8 359.0,249.4 382.0,249.0 405.0,248.7 428.0,248.4 451.0,248.1 474.0,247.9 497.0,247.6 520.0,247.4" fill="none" stroke="#2196F3" stroke-width="2"/>
<polyline points="60.0,315.6 83.0,302.5 106.0,287.7 129.0,279.0 152.0,275.2 175.0,272.1 198.0,269.4 221.0,267.0 244.0,265.0 267.0,263.3 290.0,261.7 313.0,260.3 336.0,259.1 359.0,258.0 382.0,257.0 405.0,256.1 428.0,255.2 451.0,254.5 474.0,253.8 497.0,253.1 520.0,252.5" fill="none" stroke="#9C27B0" stroke-width="2"/>
<polyline points="60.0,336.2 83.0,330.3 106.0,323.5 129.0,319.4 152.0,317.4 175.0,315.7 198.0,314.3 221.0,313.1 244.0,312.0 267.0,311.1 290.0,310.3 313.0,309.5 336.0,308.9 359.0,308.3 382.0,307.8 405.0,307.3 428.0,306.9 451.0,306.5 474.0,306.1 497.0,305.7 520.0,305.4" fill="none" stroke="#FF9800" stroke-width="2"/>
<polyline points="60.0,346.9 83.0,345.7 106.0,344.3 129.0,343.5 152.0,343.2 175.0,342.9 198.0,342.7 221.0,342.5 244.0,342.3 267.0,342.1 290.0,342.0 313.0,341.8 336.0,341.7 359.0,341.6 382.0,341.5 405.0,341.5 428.0,341.4 451.0,341.3 474.0,341.3 497.0,341.2 520.0,341.1" fill="none" stroke="#E91E63" stroke-width="2"/>
<polyline points="60.0,346.9 83.0,343.4 106.0,339.4 129.0,336.4 152.0,334.6 175.0,333.0 198.0,331.7 221.0,330.5 244.0,329.6 267.0,328.7 290.0,327.9 313.0,327.3 336.0,326.6 359.0,326.1 382.0,325.6 405.0,325.2 428.0,324.7 451.0,324.4 474.0,324.0 497.0,323.7 520.0,323.4" fill="none" stroke="#FFD700" stroke-width="2"/>
<polyline points="60.0,348.7 83.0,347.4 106.0,345.9 129.0,344.8 152.0,344.1 175.0,343.5 198.0,343.0 221.0,342.6 244.0,342.2 267.0,341.9 290.0,341.6 313.0,341.3 336.0,341.1 359.0,340.9 382.0,340.7 405.0,340.5 428.0,340.4 451.0,340.2 474.0,340.1 497.0,340.0 520.0,339.9" fill="none" stroke="#00BCD4" stroke-width="2"/>
<rect x="530" y="34" width="12" height="12" fill="#888888"/>
<text x="546" y="44" fill="#ddd" font-size="11">Trash</text>
<rect x="530" y="54" width="12" height="12" fill="#2196F3"/>
<text x="546" y="64" fill="#ddd" font-size="11">Curious</text>
<rect x="530" y="74" width="12" height="12" fill="#9C27B0"/>
<text x="546" y="84" fill="#ddd" font-size="11">Elusive</text>
<rect x="530" y="94" width="12" height="12" fill="#FF9800"/>
<text x="546" y="104" fill="#ddd" font-size="11">Fabled</text>
<rect x="530" y="114" width="12" height="12" fill="#E91E63"/>
<text x="546" y="124" fill="#ddd" font-size="11">Exotic</text>
<rect x="530" y="134" width="12" height="12" fill="#FFD700"/>
<text x="546" y="144" fill="#ddd" font-size="11">Secret</text>
<rect x="530" y="154" width="12" height="12" fill="#00BCD4"/>
<text x="546" y="164" fill="#ddd" font-size="11">Ultimate</text>
<text x="290.0" y="395" fill="#aaa" font-size="12" text-anchor="middle">Luck Multiplier</text>
<text x="15" y="190.0" fill="#aaa" font-size="12" text-anchor="middle" transform="rotate(-90,15,190.0)">Probability (%)</text>
</svg>