<svg xmlns="http://www.w3.org/2000/svg" viewBox="0 0 600 350" style="background:#1a1a2e;font-family:monospace">
<line x1="60" y1="300.0" x2="450" y2="300.0" stroke="#333" stroke-width="0.5"/>
<text x="55" y="304.0" fill="#aaa" font-size="10" text-anchor="end">0%</text>
<line x1="60" y1="273.0" x2="450" y2="273.0" stroke="#333" stroke-width="0.5"/>
<text x="55" y="277.0" fill="#aaa" font-size="10" text-anchor="end">10%</text>
<line x1="60" y1="246.0" x2="450" y2="246.0" stroke="#333" stroke-width="0.5"/>
<text x="55" y="250.0" fill="#aaa" font-size="10" text-anchor="end">20%</text>
<line x1="60" y1="219.0" x2="450" y2="219.0" stroke="#333" stroke-width="0.5"/>
<text x="55" y="223.0" fill="#aaa" font-size="10" text-anchor="end">30%</text>
<line x1="60" y1="192.0" x2="450" y2="192.0" stroke="#333" stroke-width="0.5"/>
<text x="55" y="196.0" fill="#aaa" font-size="10" text-anchor="end">40%</text>
<line x1="60" y1="165.0" x2="450" y2="165.0" stroke="#333" stroke-width="0.5"/>
<text x="55" y="169.0" fill="#aaa" font-size="10" text-anchor="end">50%</text>
<line x1="60" y1="138.0" x2="450" y2="138.0" stroke="#333" stroke-width="0.5"/>
<text x="55" y="142.0" fill="#aaa" font-size="10" text-anchor="end">60%</text>
<line x1="60" y1="111.0" x2="450" y2="111.0" stroke="#333" stroke-width="0.5"/>
<text x="55" y="115.0" fill="#aaa" font-size="10" text-anchor="end">70%</text>
<line x1="60" y1="84.0" x2="450" y2="84.0" stroke="#333" stroke-width="0.5"/>
<text x="55" y="88.0" fill="#aaa" font-size="10" text-anchor="end">80%</text>
<line x1="60" y1="57.0" x2="450" y2="57.0" stroke="#333" stroke-width="0.5"/>
<text x="55" y="61.0" fill="#aaa" font-size="10" text-anchor="end">90%</text>
<line x1="60" y1="30.0" x2="450" y2="30.0" stroke="#333" stroke-width="0.5"/>
<text x="55" y="34.0" fill="#aaa" font-size="10" text-anchor="end">100%</text>
<line x1="60.0" y1="30" x2="60.0" y2="300" stroke="#333" stroke-width="0.5"/>
<text x="60.0" y="315" fill="#aaa" font-size="10" text-anchor="middle">0%</text>
<line x1="99.0" y1="30" x2="99.0" y2="300" stroke="#333" stroke-width="0.5"/>
<text x="99.0" y="315" fill="#aaa" font-size="10" text-anchor="middle">10%</text>
<line x1="138.0" y1="30" x2="138.0" y2="300" stroke="#333" stroke-width="0.5"/>
<text x="138.0" y="315" fill="#aaa" font-size="10" text-anchor="middle">20%</text>
<line x1="177.0" y1="30" x2="177.0" y2="300" stroke="#333" stroke-width="0.5"/>
<text x="177.0" y="315" fill="#aaa" font-size="10" text-anchor="middle">30%</text>
<line x1="216.0" y1="30" x2="216.0" y2="300" stroke="#333" stroke-width="0.5"/>
<text x="216.0" y="315" fill="#aaa" font-size="10" text-anchor="middle">40%</text>
<line x1="255.0" y1="30" x2="255.0" y2="300" stroke="#333" stroke-width="0.5"/>
<text x="255.0" y="315" fill="#aaa" font-size="10" text-anchor="middle">50%</text>
<line x1="294.0" y1="30" x2="294.0" y2="300" stroke="#333" stroke-width="0.5"/>
<text x="294.0" y="315" fill="#aaa" font-size="10" text-anchor="middle">60%</text>
<line x1="333.0" y1="30" x2="333.0" y2="300" stroke="#333" stroke-width="0.5"/>
<text x="333.0" y="315" fill="#aaa" font-size="10" text-anchor="middle">70%</text>
<line x1="372.0" y1="30" x2="372.0" y2="300" stroke="#333" stroke-width="0.5"/>
<text x="372.0" y="315" fill="#aaa" font-size="10" text-anchor="middle">80%</text>
<line x1="411.0" y1="30" x2="411.0" y2="300" stroke="#333" stroke-width="0.5"/>
<text x="411.0" y="315" fill="#aaa" font-size="10" text-anchor="middle">90%</text>
<line x1="450.0" y1="30" x2="450.0" y2="300" stroke="#333" stroke-width="0.5"/>
<text x="450.0" y="315" fill="#aaa" font-size="10" text-anchor="middle">100%</text>
<line x1="60" y1="300" x2="450" y2="300" stroke="#666" stroke-width="1"/>
<line x1="60" y1="30" x2="60" y2="300" stroke="#666" stroke-width="1"/>
<polyline points="60.0,300.0 62.0,300.0 63.9,300.0 65.8,300.0 67.8,300.0 69.8,300.0 71.7,300.0 73.7,300.0 75.6,300.0 77.5,300.0 79.5,300.0 81.5,300.0 83.4,299.9 85.3,299.9 87.3,299.9 89.2,299.9 91.2,299.9 93.2,299.8 95.1,299.8 97.0,299.8 99.0,299.7 100.9,299.7 102.9,299.6 104.8,299.6 106.8,299.5 108.8,299.5 110.7,299.4 112.7,299.3 114.6,299.3 116.5,299.2 118.5,299.1 120.5,299.0 122.4,298.9 124.4,298.8 126.3,298.7 128.2,298.6 130.2,298.4 132.2,298.3 134.1,298.1 136.1,298.0 138.0,297.8 139.9,297.7 141.9,297.5 143.8,297.3 145.8,297.1 147.8,296.9 149.7,296.7 151.6,296.5 153.6,296.3 155.6,296.0 157.5,295.8 159.4,295.5 161.4,295.3 163.4,295.0 165.3,294.7 167.2,294.4 169.2,294.1 171.1,293.7 173.1,293.4 175.1,293.1 177.0,292.7 178.9,292.3 180.9,292.0 182.8,291.6 184.8,291.2 186.8,290.7 188.7,290.3 190.7,289.8 192.6,289.4 194.5,288.9 196.5,288.4 198.4,287.9 200.4,287.4 202.3,286.9 204.3,286.3 206.2,285.8 208.2,285.2 210.2,284.6 212.1,284.0 214.1,283.4 216.0,282.7 218.0,282.1 219.9,281.4 221.8,280.7 223.8,280.0 225.8,279.3 227.7,278.5 229.7,277.8 231.6,277.0 233.6,276.2 235.5,275.4 237.5,274.6 239.4,273.7 241.4,272.9 243.3,272.0 245.2,271.1 247.2,270.1 249.2,269.2 251.1,268.2 253.1,267.3 255.0,266.2 256.9,265.2 258.9,264.2 260.9,263.1 262.8,262.0 264.8,260.9 266.7,259.8 268.6,258.7 270.6,257.5 272.6,256.3 274.5,255.1 276.5,253.8 278.4,252.6 280.3,251.3 282.3,250.0 284.2,248.7 286.2,247.3 288.1,245.9 290.1,244.5 292.0,243.1 294.0,241.7 295.9,240.2 297.9,238.7 299.9,237.2 301.8,235.7 303.8,234.1 305.7,232.5 307.6,230.9 309.6,229.2 311.6,227.5 313.5,225.9 315.5,224.1 317.4,222.4 319.4,220.6 321.3,218.8 323.2,217.0 325.2,215.1 327.2,213.2 329.1,211.3 331.0,209.4 333.0,207.4 334.9,205.4 336.9,203.4 338.8,201.3 340.8,199.2 342.8,197.1 344.7,195.0 346.6,192.8 348.6,190.6 350.6,188.4 352.5,186.1 354.4,183.8 356.4,181.5 358.4,179.1 360.3,176.7 362.2,174.3 364.2,171.9 366.2,169.4 368.1,166.9 370.1,164.3 372.0,161.8 374.0,159.2 375.9,156.5 377.8,153.8 379.8,151.1 381.8,148.4 383.7,145.6 385.6,142.8 387.6,140.0 389.6,137.1 391.5,134.2 393.4,131.2 395.4,128.3 397.4,125.3 399.3,122.2 401.2,119.1 403.2,116.0 405.1,112.8 407.1,109.7 409.1,106.4 411.0,103.2 412.9,99.9 414.9,96.5 416.9,93.2 418.8,89.8 420.8,86.3 422.7,82.8 424.7,79.3 426.6,75.7 428.5,72.1 430.5,68.5 432.4,64.8 434.4,61.1 436.3,57.4 438.3,53.6 440.2,49.7 442.2,45.9 444.1,42.0 446.1,38.0 448.1,34.0 450.0,30.0" fill="none" stroke="#888888" stroke-width="2"/>
<polyline points="60.0,300.0 62.0,300.0 63.9,300.0 65.8,300.0 67.8,300.0 69.8,300.0 71.7,300.0 73.7,299.9 75.6,299.9 77.5,299.9 79.5,299.8 81.5,299.8 83.4,299.8 85.3,299.7 87.3,299.6 89.2,299.6 91.2,299.5 93.2,299.4 95.1,299.3 97.0,299.2 99.0,299.1 100.9,299.0 102.9,298.9 104.8,298.8 106.8,298.7 108.8,298.5 110.7,298.4 112.7,298.2 114.6,298.0 116.5,297.8 118.5,297.6 120.5,297.4 122.4,297.2 124.4,297.0 126.3,296.8 128.2,296.5 130.2,296.3 132.2,296.0 134.1,295.8 136.1,295.5 138.0,295.2 139.9,294.9 141.9,294.5 143.8,294.2 145.8,293.9 147.8,293.5 149.7,293.2 151.6,292.8 153.6,292.4 155.6,292.0 157.5,291.6 159.4,291.1 161.4,290.7 163.4,290.2 165.3,289.8 167.2,289.3 169.2,288.8 171.1,288.3 173.1,287.8 175.1,287.2 177.0,286.7 178.9,286.1 180.9,285.6 182.8,285.0 184.8,284.4 186.8,283.7 188.7,283.1 190.7,282.5 192.6,281.8 194.5,281.1 196.5,280.4 198.4,279.7 200.4,279.0 202.3,278.3 204.3,277.5 206.2,276.7 208.2,276.0 210.2,275.2 212.1,274.4 214.1,273.5 216.0,272.7 218.0,271.8 219.9,270.9 221.8,270.0 223.8,269.1 225.8,268.2 227.7,267.3 229.7,266.3 231.6,265.3 233.6,264.3 235.5,263.3 237.5,262.3 239.4,261.3 241.4,260.2 243.3,259.1 245.2,258.0 247.2,256.9 249.2,255.8 251.1,254.6 253.1,253.5 255.0,252.3 256.9,251.1 258.9,249.8 260.9,248.6 262.8,247.4 264.8,246.1 266.7,244.8 268.6,243.5 270.6,242.1 272.6,240.8 274.5,239.4 276.5,238.0 278.4,236.6 280.3,235.2 282.3,233.8 284.2,232.3 286.2,230.8 288.1,229.3 290.1,227.8 292.0,226.3 294.0,224.7 295.9,223.1 297.9,221.5 299.9,219.9 301.8,218.3 303.8,216.6 305.7,214.9 307.6,213.2 309.6,211.5 311.6,209.8 313.5,208.0 315.5,206.3 317.4,204.5 319.4,202.6 321.3,200.8 323.2,198.9 325.2,197.0 327.2,195.1 329.1,193.2 331.0,191.3 333.0,189.3 334.9,187.3 336.9,185.3 338.8,183.3 340.8,181.2 342.8,179.2 344.7,177.1 346.6,175.0 348.6,172.8 350.6,170.7 352.5,168.5 354.4,166.3 356.4,164.0 358.4,161.8 360.3,159.5 362.2,157.2 364.2,154.9 366.2,152.6 368.1,150.2 370.1,147.8 372.0,145.4 374.0,143.0 375.9,140.6 377.8,138.1 379.8,135.6 381.8,133.1 383.7,130.5 385.6,128.0 387.6,125.4 389.6,122.8 391.5,120.1 393.4,117.5 395.4,114.8 397.4,112.1 399.3,109.4 401.2,106.6 403.2,103.9 405.1,101.1 407.1,98.2 409.1,95.4 411.0,92.5 412.9,89.6 414.9,86.7 416.9,83.8 418.8,80.8 420.8,77.8 422.7,74.8 424.7,71.8 426.6,68.7 428.5,65.6 430.5,62.5 432.4,59.4 434.4,56.2 436.3,53.0 438.3,49.8 440.2,46.6 442.2,43.3 444.1,40.0 446.1,36.7 448.1,33.4 450.0,30.0" fill="none" stroke="#4CAF50" stroke-width="2"/>
<polyline points="60.0,300.0 62.0,300.0 63.9,300.0 65.8,299.9 67.8,299.9 69.8,299.8 71.7,299.8 73.7,299.7 75.6,299.6 77.5,299.5 79.5,299.3 81.5,299.2 83.4,299.0 85.3,298.9 87.3,298.7 89.2,298.5 91.2,298.3 93.2,298.0 95.1,297.8 97.0,297.6 99.0,297.3 100.9,297.0 102.9,296.7 104.8,296.4 106.8,296.1 108.8,295.8 110.7,295.4 112.7,295.1 114.6,294.7 116.5,294.3 118.5,293.9 120.5,293.5 122.4,293.1 124.4,292.6 126.3,292.2 128.2,291.7 130.2,291.3 132.2,290.8 134.1,290.3 136.1,289.7 138.0,289.2 139.9,288.7 141.9,288.1 143.8,287.5 145.8,286.9 147.8,286.3 149.7,285.7 151.6,285.1 153.6,284.4 155.6,283.8 157.5,283.1 159.4,282.4 161.4,281.7 163.4,281.0 165.3,280.3 167.2,279.6 169.2,278.8 171.1,278.1 173.1,277.3 175.1,276.5 177.0,275.7 178.9,274.9 180.9,274.1 182.8,273.2 184.8,272.4 186.8,271.5 188.7,270.6 190.7,269.7 192.6,268.8 194.5,267.9 196.5,266.9 198.4,266.0 200.4,265.0 202.3,264.0 204.3,263.0 206.2,262.0 208.2,261.0 210.2,260.0 212.1,258.9 214.1,257.9 216.0,256.8 218.0,255.7 219.9,254.6 221.8,253.5 223.8,252.4 225.8,251.2 227.7,250.1 229.7,248.9 231.6,247.7 233.6,246.5 235.5,245.3 237.5,244.1 239.4,242.9 241.4,241.6 243.3,240.4 245.2,239.1 247.2,237.8 249.2,236.5 251.1,235.2 253.1,233.8 255.0,232.5 256.9,231.1 258.9,229.8 260.9,228.4 262.8,227.0 264.8,225.6 266.7,224.2 268.6,222.7 270.6,221.3 272.6,219.8 274.5,218.3 276.5,216.8 278.4,215.3 280.3,213.8 282.3,212.3 284.2,210.7 286.2,209.2 288.1,207.6 290.1,206.0 292.0,204.4 294.0,202.8 295.9,201.2 297.9,199.5 299.9,197.9 301.8,196.2 303.8,194.5 305.7,192.8 307.6,191.1 309.6,189.4 311.6,187.7 313.5,185.9 315.5,184.2 317.4,182.4 319.4,180.6 321.3,178.8 323.2,177.0 325.2,175.2 327.2,173.3 329.1,171.5 331.0,169.6 333.0,167.7 334.9,165.8 336.9,163.9 338.8,162.0 340.8,160.0 342.8,158.1 344.7,156.1 346.6,154.1 348.6,152.1 350.6,150.1 352.5,148.1 354.4,146.1 356.4,144.0 358.4,142.0 360.3,139.9 362.2,137.8 364.2,135.7 366.2,133.6 368.1,131.5 370.1,129.4 372.0,127.2 374.0,125.0 375.9,122.9 377.8,120.7 379.8,118.5 381.8,116.2 383.7,114.0 385.6,111.7 387.6,109.5 389.6,107.2 391.5,104.9 393.4,102.6 395.4,100.3 397.4,98.0 399.3,95.6 401.2,93.3 403.2,90.9 405.1,88.5 407.1,86.1 409.1,83.7 411.0,81.3 412.9,78.9 414.9,76.4 416.9,73.9 418.8,71.5 420.8,69.0 422.7,66.5 424.7,64.0 426.6,61.4 428.5,58.9 430.5,56.3 432.4,53.8 434.4,51.2 436.3,48.6 438.3,46.0 440.2,43.3 442.2,40.7 444.1,38.0 446.1,35.4 448.1,32.7 450.0,30.0" fill="none" stroke="#2196F3" stroke-width="2"/>
<polyline points="60.0,300.0 62.0,299.9 63.9,299.7 65.8,299.5 67.8,299.2 69.8,298.9 71.7,298.6 73.7,298.2 75.6,297.8 77.5,297.4 79.5,297.0 81.5,296.5 83.4,296.0 85.3,295.5 87.3,295.0 89.2,294.5 91.2,293.9 93.2,293.3 95.1,292.7 97.0,292.1 99.0,291.5 100.9,290.8 102.9,290.1 104.8,289.5 106.8,288.8 108.8,288.1 110.7,287.3 112.7,286.6 114.6,285.9 116.5,285.1 118.5,284.3 120.5,283.5 122.4,282.7 124.4,281.9 126.3,281.1 128.2,280.2 130.2,279.4 132.2,278.5 134.1,277.6 136.1,276.8 138.0,275.9 139.9,274.9 141.9,274.0 143.8,273.1 145.8,272.1 147.8,271.2 149.7,270.2 151.6,269.2 153.6,268.3 155.6,267.3 157.5,266.2 159.4,265.2 161.4,264.2 163.4,263.2 165.3,262.1 167.2,261.1 169.2,260.0 171.1,258.9 173.1,257.8 175.1,256.7 177.0,255.6 178.9,254.5 180.9,253.4 182.8,252.3 184.8,251.1 186.8,250.0 188.7,248.8 190.7,247.6 192.6,246.5 194.5,245.3 196.5,244.1 198.4,242.9 200.4,241.7 202.3,240.5 204.3,239.2 206.2,238.0 208.2,236.8 210.2,235.5 212.1,234.2 214.1,233.0 216.0,231.7 218.0,230.4 219.9,229.1 221.8,227.8 223.8,226.5 225.8,225.2 227.7,223.9 229.7,222.5 231.6,221.2 233.6,219.8 235.5,218.5 237.5,217.1 239.4,215.8 241.4,214.4 243.3,213.0 245.2,211.6 247.2,210.2 249.2,208.8 251.1,207.4 253.1,206.0 255.0,204.5 256.9,203.1 258.9,201.7 260.9,200.2 262.8,198.8 264.8,197.3 266.7,195.8 268.6,194.3 270.6,192.9 272.6,191.4 274.5,189.9 276.5,188.4 278.4,186.9 280.3,185.3 282.3,183.8 284.2,182.3 286.2,180.7 288.1,179.2 290.1,177.6 292.0,176.1 294.0,174.5 295.9,172.9 297.9,171.4 299.9,169.8 301.8,168.2 303.8,166.6 305.7,165.0 307.6,163.4 309.6,161.8 311.6,160.1 313.5,158.5 315.5,156.9 317.4,155.2 319.4,153.6 321.3,151.9 323.2,150.3 325.2,148.6 327.2,146.9 329.1,145.2 331.0,143.6 333.0,141.9 334.9,140.2 336.9,138.5 338.8,136.8 340.8,135.0 342.8,133.3 344.7,131.6 346.6,129.9 348.6,128.1 350.6,126.4 352.5,124.6 354.4,122.9 356.4,121.1 358.4,119.3 360.3,117.6 362.2,115.8 364.2,114.0 366.2,112.2 368.1,110.4 370.1,108.6 372.0,106.8 374.0,105.0 375.9,103.2 377.8,101.3 379.8,99.5 381.8,97.7 383.7,95.8 385.6,94.0 387.6,92.1 389.6,90.3 391.5,88.4 393.4,86.5 395.4,84.7 397.4,82.8 399.3,80.9 401.2,79.0 403.2,77.1 405.1,75.2 407.1,73.3 409.1,71.4 411.0,69.5 412.9,67.5 414.9,65.6 416.9,63.7 418.8,61.7 420.8,59.8 422.7,57.8 424.7,55.9 426.6,53.9 428.5,52.0 430.5,50.0 432.4,48.0 434.4,46.0 436.3,44.1 438.3,42.1 440.2,40.1 442.2,38.1 444.1,36.1 446.1,34.0 448.1,32.0 450.0,30.0" fill="none" stroke="#FF9800" stroke-width="2"/>
<polyline points="60.0,300.0 62.0,297.9 63.9,295.8 65.8,293.6 67.8,291.5 69.8,289.4 71.7,287.3 73.7,285.2 75.6,283.0 77.5,280.9 79.5,278.8 81.5,276.7 83.4,274.6 85.3,272.5 87.3,270.4 89.2,268.3 91.2,266.2 93.2,264.1 95.1,262.0 97.0,259.9 99.0,257.8 100.9,255.7 102.9,253.6 104.8,251.5 106.8,249.4 108.8,247.3 110.7,245.2 112.7,243.2 114.6,241.1 116.5,239.0 118.5,237.0 120.5,234.9 122.4,232.9 124.4,230.8 126.3,228.8 128.2,226.7 130.2,224.7 132.2,222.6 134.1,220.6 136.1,218.6 138.0,216.6 139.9,214.6 141.9,212.5 143.8,210.5 145.8,208.5 147.8,206.5 149.7,204.6 151.6,202.6 153.6,200.6 155.6,198.6 157.5,196.7 159.4,194.7 161.4,192.8 163.4,190.8 165.3,188.9 167.2,187.0 169.2,185.0 171.1,183.1 173.1,181.2 175.1,179.3 177.0,177.4 178.9,175.5 180.9,173.7 182.8,171.8 184.8,169.9 186.8,168.1 188.7,166.2 190.7,164.4 192.6,162.6 194.5,160.7 196.5,158.9 198.4,157.1 200.4,155.3 202.3,153.5 204.3,151.8 206.2,150.0 208.2,148.2 210.2,146.5 212.1,144.7 214.1,143.0 216.0,141.3 218.0,139.6 219.9,137.9 221.8,136.2 223.8,134.5 225.8,132.8 227.7,131.2 229.7,129.5 231.6,127.9 233.6,126.3 235.5,124.6 237.5,123.0 239.4,121.4 241.4,119.9 243.3,118.3 245.2,116.7 247.2,115.2 249.2,113.6 251.1,112.1 253.1,110.6 255.0,109.1 256.9,107.6 258.9,106.1 260.9,104.6 262.8,103.2 264.8,101.7 266.7,100.3 268.6,98.9 270.6,97.5 272.6,96.1 274.5,94.7 276.5,93.3 278.4,92.0 280.3,90.6 282.3,89.3 284.2,88.0 286.2,86.7 288.1,85.4 290.1,84.1 292.0,82.8 294.0,81.6 295.9,80.3 297.9,79.1 299.9,77.9 301.8,76.7 303.8,75.5 305.7,74.3 307.6,73.2 309.6,72.0 311.6,70.9 313.5,69.8 315.5,68.7 317.4,67.6 319.4,66.5 321.3,65.5 323.2,64.4 325.2,63.4 327.2,62.4 329.1,61.4 331.0,60.4 333.0,59.4 334.9,58.5 336.9,57.5 338.8,56.6 340.8,55.7 342.8,54.8 344.7,53.9 346.6,53.1 348.6,52.2 350.6,51.4 352.5,50.6 354.4,49.7 356.4,49.0 358.4,48.2 360.3,47.4 362.2,46.7 364.2,46.0 366.2,45.3 368.1,44.6 370.1,43.9 372.0,43.2 374.0,42.6 375.9,41.9 377.8,41.3 379.8,40.7 381.8,40.1 383.7,39.6 385.6,39.0 387.6,38.5 389.6,38.0 391.5,37.5 393.4,37.0 395.4,36.5 397.4,36.0 399.3,35.6 401.2,35.2 403.2,34.8 405.1,34.4 407.1,34.0 409.1,33.7 411.0,33.3 412.9,33.0 414.9,32.7 416.9,32.4 418.8,32.1 420.8,31.9 422.7,31.6 424.7,31.4 426.6,31.2 428.5,31.0 430.5,30.8 432.4,30.7 434.4,30.5 436.3,30.4 438.3,30.3 440.2,30.2 442.2,30.1 444.1,30.1 446.1,30.0 448.1,30.0 450.0,30.0" fill="none" stroke="#F44336" stroke-width="2"/>
<rect x="460" y="34" width="12" height="12" fill="#888888"/>
<text x="476" y="44" fill="#ddd" font-size="10">BigCatch=0%</text>
<rect x="460" y="54" width="12" height="12" fill="#4CAF50"/>
<text x="476" y="64" fill="#ddd" font-size="10">BigCatch=25%</text>
<rect x="460" y="74" width="12" height="12" fill="#2196F3"/>
<text x="476" y="84" fill="#ddd" font-size="10">BigCatch=50%</text>
<rect x="460" y="94" width="12" height="12" fill="#FF9800"/>
<text x="476" y="104" fill="#ddd" font-size="10">BigCatch=75%</text>
<rect x="460" y="114" width="12" height="12" fill="#F44336"/>
<text x="476" y="124" fill="#ddd" font-size="10">BigCatch=100% (sin)</text>
<text x="255.0" y="345" fill="#aaa" font-size="12" text-anchor="middle">Random Roll (0~100%)</text>
<text x="15" y="165.0" fill="#aaa" font-size="12" text-anchor="middle" transform="rotate(-90,15,165.0)">Weight Fraction of Max</text>
</svg>