<svg xmlns="http://www.w3.org/2000/svg" viewBox="0 0 600 350" style="background:#1a1a2e;font-family:monospace">
<line x1="70" y1="300.0" x2="570" y2="300.0" stroke="#333" stroke-width="0.5"/>
<text x="65" y="304.0" fill="#aaa" font-size="10" text-anchor="end">0</text>
<line x1="70" y1="273.0" x2="570" y2="273.0" stroke="#333" stroke-width="0.5"/>
<text x="65" y="277.0" fill="#aaa" font-size="10" text-anchor="end">168K</text>
<line x1="70" y1="246.0" x2="570" y2="246.0" stroke="#333" stroke-width="0.5"/>
<text x="65" y="250.0" fill="#aaa" font-size="10" text-anchor="end">336K</text>
<line x1="70" y1="219.0" x2="570" y2="219.0" stroke="#333" stroke-width="0.5"/>
<text x="65" y="223.0" fill="#aaa" font-size="10" text-anchor="end">504K</text>
<line x1="70" y1="192.0" x2="570" y2="192.0" stroke="#333" stroke-width="0.5"/>
<text x="65" y="196.0" fill="#aaa" font-size="10" text-anchor="end">672K</text>
<line x1="70" y1="165.0" x2="570" y2="165.0" stroke="#333" stroke-width="0.5"/>
<text x="65" y="169.0" fill="#aaa" font-size="10" text-anchor="end">840K</text>
<line x1="70" y1="138.0" x2="570" y2="138.0" stroke="#333" stroke-width="0.5"/>
<text x="65" y="142.0" fill="#aaa" font-size="10" text-anchor="end">1009K</text>
<line x1="70" y1="111.0" x2="570" y2="111.0" stroke="#333" stroke-width="0.5"/>
<text x="65" y="115.0" fill="#aaa" font-size="10" text-anchor="end">1177K</text>
<line x1="70" y1="84.0" x2="570" y2="84.0" stroke="#333" stroke-width="0.5"/>
<text x="65" y="88.0" fill="#aaa" font-size="10" text-anchor="end">1345K</text>
<line x1="70" y1="57.0" x2="570" y2="57.0" stroke="#333" stroke-width="0.5"/>
<text x="65" y="61.0" fill="#aaa" font-size="10" text-anchor="end">1513K</text>
<line x1="70" y1="30.0" x2="570" y2="30.0" stroke="#333" stroke-width="0.5"/>
<text x="65" y="34.0" fill="#aaa" font-size="10" text-anchor="end">1681K</text>
<line x1="70.0" y1="30" x2="70.0" y2="300" stroke="#333" stroke-width="0.5"/>
<text x="70.0" y="315" fill="#aaa" font-size="10" text-anchor="middle">0</text>
<line x1="120.0" y1="30" x2="120.0" y2="300" stroke="#333" stroke-width="0.5"/>
<text x="120.0" y="315" fill="#aaa" font-size="10" text-anchor="middle">100</text>
<line x1="170.0" y1="30" x2="170.0" y2="300" stroke="#333" stroke-width="0.5"/>
<text x="170.0" y="315" fill="#aaa" font-size="10" text-anchor="middle">200</text>
<line x1="220.0" y1="30" x2="220.0" y2="300" stroke="#333" stroke-width="0.5"/>
<text x="220.0" y="315" fill="#aaa" font-size="10" text-anchor="middle">300</text>
<line x1="270.0" y1="30" x2="270.0" y2="300" stroke="#333" stroke-width="0.5"/>
<text x="270.0" y="315" fill="#aaa" font-size="10" text-anchor="middle">400</text>
<line x1="320.0" y1="30" x2="320.0" y2="300" stroke="#333" stroke-width="0.5"/>
<text x="320.0" y="315" fill="#aaa" font-size="10" text-anchor="middle">500</text>
<line x1="370.0" y1="30" x2="370.0" y2="300" stroke="#333" stroke-width="0.5"/>
<text x="370.0" y="315" fill="#aaa" font-size="10" text-anchor="middle">600</text>
<line x1="420.0" y1="30" x2="420.0" y2="300" stroke="#333" stroke-width="0.5"/>
<text x="420.0" y="315" fill="#aaa" font-size="10" text-anchor="middle">700</text>
<line x1="470.0" y1="30" x2="470.0" y2="300" stroke="#333" stroke-width="0.5"/>
<text x="470.0" y="315" fill="#aaa" font-size="10" text-anchor="middle">800</text>
<line x1="520.0" y1="30" x2="520.0" y2="300" stroke="#333" stroke-width="0.5"/>
<text x="520.0" y="315" fill="#aaa" font-size="10" text-anchor="middle">900</text>
<line x1="570.0" y1="30" x2="570.0" y2="300" stroke="#333" stroke-width="0.5"/>
<text x="570.0" y="315" fill="#aaa" font-size="10" text-anchor="middle">1000</text>
<line x1="70" y1="300" x2="570" y2="300" stroke="#666" stroke-width="1"/>
<line x1="70" y1="30" x2="70" y2="300" stroke="#666" stroke-width="1"/>
<polyline points="70.0,300.0 72.5,299.9 75.0,299.6 77.5,299.1 80.0,298.6 82.5,298.1 85.0,297.5 87.5,297.0 90.0,296.5 92.5,296.0 95.0,295.4 97.5,294.6 100.0,293.8 102.5,293.0 105.0,292.2 107.5,291.4 110.0,290.6 112.5,289.8 115.0,289.0 117.5,288.2 120.0,287.4 122.5,286.6 125.0,285.8 127.5,285.0 130.0,284.2 132.5,283.3 135.0,282.5 137.5,281.7 140.0,280.9 142.5,280.1 145.0,279.3 147.5,278.5 150.0,277.7 152.5,276.9 155.0,276.1 157.5,275.3 160.0,274.5 162.5,273.7 165.0,272.9 167.5,272.1 170.0,271.3 172.5,270.5 175.0,269.7 177.5,268.9 180.0,268.1 182.5,267.3 185.0,266.5 187.5,265.7 190.0,264.9 192.5,264.1 195.0,263.3 197.5,262.5 200.0,261.7 202.5,260.9 205.0,260.1 207.5,259.3 210.0,258.5 212.5,257.7 215.0,256.9 217.5,256.1 220.0,255.3 222.5,254.4 225.0,253.6 227.5,252.8 230.0,252.0 232.5,251.2 235.0,250.4 237.5,249.6 240.0,248.8 242.5,248.0 245.0,247.2 247.5,246.4 250.0,245.6 252.5,244.8 255.0,244.0 257.5,243.2 260.0,242.4 262.5,241.6 265.0,240.8 267.5,240.0 270.0,239.2 272.5,238.4 275.0,237.6 277.5,236.8 280.0,236.0 282.5,235.2 285.0,234.4 287.5,233.6 290.0,232.8 292.5,232.0 295.0,231.2 297.5,230.4 300.0,229.6 302.5,228.8 305.0,228.0 307.5,227.2 310.0,226.4 312.5,225.5 315.0,224.7 317.5,223.9 320.0,223.0 322.5,221.4 325.0,219.8 327.5,218.2 330.0,216.6 332.5,215.0 335.0,213.3 337.5,211.7 340.0,210.1 342.5,208.5 345.0,206.9 347.5,205.3 350.0,203.7 352.5,202.1 355.0,200.5 357.5,198.9 360.0,197.3 362.5,195.7 365.0,194.1 367.5,192.5 370.0,190.9 372.5,189.3 375.0,187.7 377.5,186.1 380.0,184.4 382.5,182.8 385.0,181.2 387.5,179.6 390.0,178.0 392.5,176.4 395.0,174.8 397.5,173.2 400.0,171.6 402.5,170.0 405.0,168.4 407.5,166.8 410.0,165.2 412.5,163.6 415.0,162.0 417.5,160.4 420.0,158.8 422.5,157.2 425.0,155.6 427.5,153.9 430.0,152.3 432.5,150.7 435.0,149.1 437.5,147.5 440.0,145.9 442.5,144.3 445.0,142.7 447.5,141.1 450.0,139.5 452.5,137.9 455.0,136.3 457.5,134.7 460.0,133.1 462.5,131.5 465.0,129.9 467.5,128.3 470.0,126.7 472.5,125.0 475.0,123.4 477.5,121.8 480.0,120.2 482.5,118.6 485.0,117.0 487.5,115.4 490.0,113.8 492.5,112.2 495.0,110.6 497.5,109.0 500.0,107.4 502.5,105.8 505.0,104.2 507.5,102.6 510.0,101.0 512.5,99.4 515.0,97.8 517.5,96.1 520.0,94.2 522.5,91.0 525.0,87.8 527.5,84.6 530.0,81.4 532.5,78.2 535.0,75.0 537.5,71.7 540.0,68.5 542.5,65.3 545.0,62.1 547.5,58.9 550.0,55.7 552.5,52.5 555.0,49.3 557.5,46.1 560.0,42.8 562.5,39.6 565.0,36.4 567.5,33.2 570.0,30.0" fill="none" stroke="#FFD700" stroke-width="2"/>
<line x1="75.0" y1="30" x2="75.0" y2="300" stroke="#F44336" stroke-width="1" stroke-dasharray="3"/>
<text x="77.0" y="45" fill="#F44336" font-size="9">Lv10: 650/lv</text>
<line x1="94.5" y1="30" x2="94.5" y2="300" stroke="#F44336" stroke-width="1" stroke-dasharray="3"/>
<text x="96.5" y="45" fill="#F44336" font-size="9">Lv49: 1K/lv</text>
<line x1="319.5" y1="30" x2="319.5" y2="300" stroke="#F44336" stroke-width="1" stroke-dasharray="3"/>
<text x="321.5" y="45" fill="#F44336" font-size="9">Lv499: 2K/lv</text>
<line x1="519.5" y1="30" x2="519.5" y2="300" stroke="#F44336" stroke-width="1" stroke-dasharray="3"/>
<text x="521.5" y="45" fill="#F44336" font-size="9">Lv899: 4K/lv</text>
<text x="320.0" y="345" fill="#aaa" font-size="12" text-anchor="middle">Player Level</text>
<text x="15" y="165.0" fill="#aaa" font-size="12" text-anchor="middle" transform="rotate(-90,15,165.0)">Cumulative XP</text>
</svg>